P1
#The letter J
5 6
1 1 1 1 1 
0 0 1 0 0
0 0 1 0 0
0 0 1 0 0
0 0 1 0 0
1 1 1 0 0

